{"title":"The Transporter Refueled(2015)MPEG-4[DaScubaDude]","uid":13426750,"size":954857177,"categoryP":"video","categoryS":"movies","magnet":"?xt=urn:btih:8b6cab1403d16d21c802b8c864119ac68017da94&amp;dn=The+Transporter+Refueled%282015%29MPEG-4%5BDaScubaDude%5D&amp;tr=udp%3A%2F%2Ftracker.leechers-paradise.org%3A6969&amp;tr=udp%3A%2F%2Fzer0day.ch%3A1337&amp;tr=udp%3A%2F%2Fopen.demonii.com%3A1337&amp;tr=udp%3A%2F%2Ftracker.coppersurfer.tk%3A6969&amp;tr=udp%3A%2F%2Fexodus.desync.com%3A6969","seeders":1,"leechers":0,"uploader":"dascuba","files":1,"time":1454598773,"description":"The Transporter Refueled (2015)\r\nPG-13 | 1h 36min | Action, Crime, Thriller | 4 September 2015 (USA)\r\nIn the south of France, former special-ops mercenary Frank Martin enters into a game of chess with a femme-fatale and her three sidekicks who are looking for revenge against a sinister Russian kingpin.\r\nDirector: Camille Delamarre\r\nWriters: Adam Cooper, Bill Collage | 3 more credits »\r\nStars: Ed Skrein, Loan Chabanol, Ray Stevenson |\r\n\r\nGeneral\r\nComplete name                            :The Big SleepTHE_BIG_SLEEP_Title1.mp4\r\nFormat                                   : MPEG-4\r\nFormat profile                           : Base Media\r\nCodec ID                                 : isom\r\nFile size                                : 1.07 GiB\r\nDuration                                 : 1h 53mn\r\nOverall bit rate mode                    : Variable\r\nOverall bit rate                         : 1 340 Kbps\r\nMovie name                               : THE_BIG_SLEEP\r\nGenre                                    : Mystery\r\nWriting application                      : Lavf54.6.100\r\n\r\nVideo\r\nID                                       : 1\r\nFormat                                   : AVC\r\nFormat/Info                              : Advanced Video Codec\r\nFormat profile                           :   \r\nFormat settings, CABAC                   : No\r\nFormat settings, ReFrames                : 6 frames\r\nCodec ID                                 : avc1\r\nCodec ID/Info                            : Advanced Video Coding\r\nDuration                                 : 1h 53mn\r\nBit rate                                 : 1 194 Kbps\r\nWidth                                    : 720 pixels\r\nHeight                                   : 540 pixels\r\nDisplay aspect ratio                     : 4:3\r\nFrame rate mode                          : Constant\r\nFrame rate                               : 29.970 fps\r\nColor space                              : YUV\r\nChroma subsampling                       : 4:2:0\r\nBit depth                                : 8 bits\r\nScan type                                : Progressive\r\nBits/(Pixel*Frame)                       : 0.102\r\nStream size                              : 973 MiB (89%)\r\n\r\nAudio\r\nID                                       : 2\r\nFormat                                   : AAC\r\nFormat/Info                              : Advanced Audio Codec\r\nFormat profile                           : LC\r\nCodec ID                                 : 40\r\nDuration                                 : 1h 53mn\r\nBit rate mode                            : Variable\r\nBit rate                                 : 139 Kbps\r\nMaximum bit rate                         : 168 Kbps\r\nChannel(s)                               : 2 channels\r\nChannel positions                        : Front: L R\r\nSampling rate                            : 44.1 KHz\r\nCompression mode                         : Lossy\r\nStream size                              : 113 MiB (10%)","torrent":{"xt":"urn:btih:8b6cab1403d16d21c802b8c864119ac68017da94","amp;dn":"The+Transporter+Refueled%282015%29MPEG-4%5BDaScubaDude%5D","amp;tr":["udp%3A%2F%2Ftracker.leechers-paradise.org%3A6969","udp%3A%2F%2Fzer0day.ch%3A1337","udp%3A%2F%2Fopen.demonii.com%3A1337","udp%3A%2F%2Ftracker.coppersurfer.tk%3A6969","udp%3A%2F%2Fexodus.desync.com%3A6969"],"infoHash":"8b6cab1403d16d21c802b8c864119ac68017da94","infoHashBuffer":{"type":"Buffer","data":[139,108,171,20,3,209,109,33,200,2,184,200,100,17,154,198,128,23,218,148]},"announce":[],"urlList":[]}}